<svg xmlns="http://www.w3.org/2000/svg" viewBox="0 0 2000 1000" id="worldMap" preserveAspectRatio="xMidYMid meet">
  <rect width="2000" height="1000" fill="#0d1523"/>

  <!-- REAL WORLD LAND PATHS -->
  <g id="land" fill="rgba(255,255,255,0.12)" stroke="rgba(255,255,255,0.05)" stroke-width="1">

    <path d="M 958 298 L 947 310 936 324 930 338 932 355 945 370 960 380 977 388 996 388 1014 380 1028 368 1037 355 1042 340 1042 324 1036 310 1024 300 1008 294 990 292 973 294z"/>
    <path d="M 1170 310 L 1154 322 1142 338 1136 360 1140 380 1153 400 1172 414 1192 420 1210 416 1226 404 1238 386 1243 364 1240 342 1228 324 1210 312 1190 308z"/>
    <path d="M 690 370 L 676 382 668 398 666 420 674 438 690 452 710 458 730 456 746 444 756 426 758 404 752 386 738 374 720 368z"/>
    <path d="M 1380 450 L 1364 466 1354 486 1350 510 1356 530 1372 548 1394 558 1418 556 1436 544 1448 522 1452 498 1446 474 1432 458 1408 452z"/>
    <path d="M 300 520 L 280 538 268 560 266 586 274 606 292 622 316 630 340 628 360 614 370 592 372 566 362 544 340 528z"/>
    <path d="M 1650 520 L 1634 538 1624 560 1622 584 1628 604 1642 620 1664 628 1686 626 1704 612 1714 592 1716 568 1706 546 1686 530z"/>

  </g>

  <!-- text (watermark) -->
  <text x="1000" y="60" fill="rgba(255,255,255,0.06)" font-family="Inter" font-size="32" text-anchor="middle">
    World Blessing Map
  </text>
</svg>
