<svg xmlns="http://www.w3.org/2000/svg" viewBox="0 0 2000 1001" fill="#d9d9d9">
<path d="M1145 240l-4-3-4-5-2-8-3-6-7-10-7-3-22-18-11-14-7-6-9-12-10-21-2-14-2-5-3-2-3-7-8-4-4 1-4-5-4-10-7-10-6-2-10-8-6-8-2-8-6-5-6-10-8-8-10-5-6-6-2-7-5-6-9-10-3-10-3-2-7-12-5-3-9-2-5 1-4-4-5-2-4-8-6-5-7-2-4 2-6-3-4-8-6-3-9-1-6-7-6-2-4-5-5-2-7-1-9-7-6-1-7 1-8-4h-8l-4-3-10-2-8-5-7-3h-6l-7-5-8-2-10-1-9-4h-8l-11 3-9 1-5-2-9 1-6 3-17 3h-9l-13 4-8 6-10 4-6 1-10 8-13 5-7 5-13 5-8 9-9 4-9 8-3 7-12 12-5 9-7 6-3 7-10 11-5 10-8 8-4 10-8 10-2 7-6 10-5 5-2 8-6 11-5 6-4 9-3 11-7 8-3 10-10 13-3 7-4 4-6 21-4 7-7 15-4 7-7 27-4 13-4 8-3 14-6 10-2 10 1 10-3 7-6 9-5 16-2 8v10l-4 13-3 5-4 20v11l-4 12-4 10-3 20-3 7v13l-3 9-2 13-4 6v12l-2 9-1 12-2 7v10l-3 11v11l-1 11v14l-2 10 1 10v12l2 11v10l3 9v11l2 10 3 12 1 8 4 13 1 10 5 11 4 14 4 7 4 13 6 10 5 14 6 9 3 8 9 13 4 10 6 7 9 14 5 6 10 12 6 5 7 10 8 7 10 12 8 5 10 12 11 5 9 9 9 6 14 8 10 8 17 8 9 7 16 7 10 6 11 3 16 6 11 4 15 3 12 5 16 3 12 4 26 2 12 3h14l11 3h18l14-3h17l14-2 11-3 14-1 14-4 12-2 15-6 10-3 13-6 11-4 10-6 9-3 12-8 11-7 8-5 9-4 10-8 10-7 6-7 11-8 6-7 8-6 9-11 5-5 10-12 4-8 9-12 4-9 7-13 4-8 6-14 3-12 5-10 3-14 5-15 2-10 3-15 4-13v-13l5-11 1-15 3-12v-14l2-10v-14l1-10v-13l-1-9v-15l-1-10-2-13-1-12-3-15-2-10-3-15-5-15-2-10-4-14-5-10-2-8-5-10-4-12-5-10-6-10-5-12-6-8-8-14-6-7-7-12-8-7-8-13-9-8-11-14-9-6-10-10z"/>
</svg>
