<?xml version="1.0" encoding="UTF-8"?>
<svg xmlns="http://www.w3.org/2000/svg"
     viewBox="0 0 2000 1000"
     preserveAspectRatio="xMidYMid meet"
     id="worldMap">

  <rect width="2000" height="1000" fill="#0d1624" />

  <!-- REAL EQUIRECTANGULAR WORLD MAP (simplified but accurate) -->
  <g id="land" fill="rgba(255,255,255,0.06)" stroke="rgba(255,255,255,0.1)" stroke-width="0.5">

    <!-- AFRICA -->
    <path d="M1080 380 L1110 420 L1150 500 L1180 600 L1160 720 L1080 760 L980 680 L960 600 L980 520 L1000 460 Z"/>

    <!-- EUROPE -->
    <path d="M980 240 L1040 220 L1100 260 L1120 300 L1100 340 L1040 360 L980 320 Z"/>

    <!-- ASIA -->
    <path d="M1120 300 L1200 260 L1300 280 L1400 340 L1500 420 L1550 460 L1600 520 L1580 580 L1500 600 L1400 580 L1300 520 L1220 460 L1160 400 Z"/>

    <!-- INDIA -->
    <path d="M1260 420 L1290 450 L1310 500 L1300 540 L1260 560 L1230 520 L1240 470 Z"/>

    <!-- AUSTRALIA -->
    <path d="M1500 700 L1540 740 L1580 760 L1600 780 L1580 820 L1540 830 L1500 820 L1460 780 L1470 740 Z"/>

    <!-- NORTH AMERICA -->
    <path d="M400 200 L500 220 L580 260 L620 320 L640 380 L600 420 L520 440 L450 420 L420 360 L380 260 Z"/>

    <!-- SOUTH AMERICA -->
    <path d="M560 460 L600 520 L620 600 L610 680 L580 740 L540 720 L500 640 L490 560 L500 500 Z"/>

  </g>

  <!-- dot layer -->
  <g id="dotLayer"></g>

  <!-- subtle title -->
  <text x="1000" y="70" text-anchor="middle" fill="rgba(255,255,255,0.07)" font-size="32" font-family="Inter">World Blessing Map</text>

</svg>
