<svg xmlns="http://www.w3.org/2000/svg" viewBox="0 0 2000 1001">
  <path fill="#cdd9e5" d="M1644 63l10 37-27 16 2 30 39 37 16 43 38 31 10 49-11 23 19 17-6 38 37 33-1 18-21 14 8 41 47 27 13 27-6 24-34 10-27 31-32 5-32-8-25-22-28 3-27 33-16 1-36-20-12 5-10 29-24 10-36-11-43 6-19 27-1 31 16 38-7 31-28 11-18 27-22 5-29 39-32 10-27 0-36 15-40 7-41-3-24-10-25 7-33 0-31-12-27 3-41 20-45-3-28-15-33-1-44-12-37 8-18 18-33 9-45 0-29-13-41-2-27 13-48 6-43-2-41 14-42 7-32-11-31 0-29 11-45 5-28 0-48 16-44 9-33-3-41-9-44-3-30-14-38-5-41 1-33 12-41-2-38-13-30-3-45 9-37-3-42-17-34-6-36 7-43-7-38-14-33-1-45 13-43 2-36-14-31-3-27-12-43 1-33-16-34-7-40 5-37-12-29-2-46-15-45 2-31-19-28-7-43 14-41-2-33-22-29-4-43 4-40-5-39-18-42-8-40 17-33 2-41-12-44-1-38-17-34-4-45 10-36-1-41-20-39 0-43-4-31-11-41 2-37-17-35-5-42 14-30 1-45-21-37-5-39-26-28-8-46-4-37-17-32-22-38-5-33-29-31-12-42-27-24-21-31-37-44-51-22-33-2-40 25-28 41-27 35-27 42-9 37-19 41-8 33-20 39-20 28-26 39-12 34-17 41-13 35-13 41-23 32-9 43-20 38-3 39-14 37-13 42-2 31-17 46-4 32-10 45-5 36-10 41-6 44-2 37-15 44-6 33-3 45-14 35-1 45-18 36-7 43-4 38-8 45 1 35-11 44-3 42-14 37-6 40-12 48 4 35-9 40-1 44-18 42-2 33-14 43-7 37-4 43-13 37 3 44-16 38 0 45-19 32 7 45-16 37 2 43-21 38 5 45-14 33-8 45-10 36 4 39-5 46 2 34-9 45 0 33-10 41-3 38 6 47-4 34 12 43 0 34 7 41-4 34 13 38 1 43 20 36 14 41 3 33 19 41 9 33 14 42 8 31 18 41 11 29 23 34 19 32 30 29 28 27 41 20 45 15 33z"/>
</svg>
