<svg xmlns="http://www.w3.org/2000/svg" viewBox="0 0 2000 1001">
<path fill="#87a8d0" d="M0 0h2000v1001H0z"/>
<path fill="#cfd6e5" d="M1270 170l18 32 38 10 22 28 46 6 14 22-6 38 36 18 14 36 34 10 20 34-8 30 22 26 2 32-38 28-50 20-22 28-52 26-18 34-46 10-40 26-56 6-38 22-44-6-42 10-40-16-52 4-30-20-48 4-42-16-56 6-34-16-46-2-36-22-42-10-36-22-44-2-28-18-32-4-34-22-30-2-26-18-40-10-34-22-30-4-24-18-36-10-28-20-34-6-30-18-28-22-32-12-26-20-34-8-30-18-28-16-24-22-22-26-20-28-12-30-10-34 6-30 20-32 22-28 28-22 32-18 36-16 38-10 42-6 40-4 42-2 40 4 42 8 38 10 36 12 34 18 32 20 30 22 28 26 26 28 22 30 20 32 18 34 16 36 10 36 8 36 4 38 0 36-4 32-6 30-10 28-14 24-18 20-20 18-26 14-28 10-30 6-34 2-36-2-38-6-40-10-42-14-40-18-42-22-38-26-40-28-36-32-34-34-30-36-26-36-22-38-18-38-14-40-10-40-4-40 0-38 4-36 8-36 12-34 16-32 18-30 22-28 26-26 28-24 32-20 34-18 36-14 38-10 40-6 42-4 44-2 44 2 42 6 40 8 38 10 34 14 32 18 30 20 28 24 24 28 22 30 18 32 14 36 10 36 6 38 2 40-4 40-8 38-12 36-16 34-20 32-24 30-28 26-32 24-34 20-36 16-40 14-42 10-44 6-46 4-48 0-48-4-48-8-48-12-46-16-44-20-42-24-40-28-38-32-34-34-30-38-26-40-20-42-16-44-10-44-6-46 0-46 6-46 12-46 18-44 22-42 26-40 30-38 34-34 38-30 40-26 44-20 46-16 48-10 50-4 52 0 50 4 50 10 48 16 46 22 42 28 40 32 36 36 30 40 26 44 20 48 14 50 8 52 2 54-4 56z"/>
</svg>
