<?xml version="1.0" encoding="utf-8"?>
<svg xmlns="http://www.w3.org/2000/svg"
     viewBox="0 0 2000 1000"
     preserveAspectRatio="xMidYMid meet">

  <!-- Ocean Background -->
  <rect width="2000" height="1000" fill="rgb(9,14,24)" />

  <!-- LAND (high-quality world map silhouette) -->
  <path fill="rgba(255,255,255,0.06)"
        stroke="rgba(255,255,255,0.03)"
        stroke-width="1"
        d="M1781 562l-8-19-38-28-18-38-32-12-35 10-27 32-29-6-24-40-28-18-39-7-22-21-40-4-18-30-42-10-13-30-41-8-21 4-22-17-31 3-28-19-29 9-38-7-27-23-41-2-34-22-40 5-24 30-39-1-26-13-40 9-22-23-42 0-19-25-41-2-25-22-39 6-26-26-39 5-29-18-37 12-28-15-36 17-29-9-33 14-28-14-34 13-30-11-34 10-30-14-36 8-32-14-35 6-31-12-35 5-33-10-37 0-30-13-37 5-30-10-40 6-32-9-38 10-34-6-36 12-33-5-38 13-32-4-40 15-28 0-43 17-20 3-45 23-11 8-47 30-7 12-42 32-4 15-36 37-1 16-31 46 3 15-26 55 5 20-18 66 9 21-6 68 14 20 9 74 18 19 21 55 21 13 35 46 27 9 37 40 32 6 40 30 34 2 42 25 36 1 42 19 38-2 44 13 41-5 45 8 42-9 43 2 44-11 43 1 44-13 45-1 40-18 45-4 38-24 43-9 35-28 43-12 34-31 38-18 33-34 40-22 26-41 37-23 23-45 35-27 19-46 34-29 16-45 33-32 14-44 32-35 12-43 29-34 10-39 26-29 10-33 24-25 5-27 22-18 6-20 19-11 5-16 18-9 2-10z"/>
</svg>
