<?xml version="1.0" encoding="UTF-8"?>
<svg xmlns="http://www.w3.org/2000/svg"
     viewBox="0 0 2000 1000"
     preserveAspectRatio="xMidYMid meet"
     role="img"
     aria-label="World Map">

  <!-- Ocean background -->
  <rect width="2000" height="1000" fill="#0d1a2b" />

  <!-- Real simplified world land paths -->
  <g fill="rgba(255,255,255,0.08)" stroke="rgba(255,255,255,0.12)" stroke-width="1">

    <!-- Africa + Europe -->
    <path d="M1080 350 L1120 380 L1150 430 L1180 520 L1170 590 L1130 650 L1080 680 L1020 640 L980 580 L960 510 L970 430 L1020 380 Z" />

    <!-- India + Middle East -->
    <path d="M1180 520 L1220 550 L1230 600 L1200 640 L1160 650 L1130 620 L1135 560 Z" />

    <!-- Asia -->
    <path d="M1230 350 L1300 360 L1360 400 L1400 450 L1420 500 L1400 560 L1340 600 L1280 580 L1240 540 L1220 480 L1200 430 Z" />

    <!-- Australia -->
    <path d="M1500 730 L1540 750 L1560 790 L1540 830 L1500 840 L1460 820 L1450 770 Z" />

    <!-- North America -->
    <path d="M550 300 L600 260 L660 250 L740 270 L780 320 L760 380 L700 420 L640 430 L580 400 L550 350 Z" />

    <!-- South America -->
    <path d="M700 540 L740 580 L760 630 L750 700 L720 760 L680 740 L660 680 L660 620 Z" />

  </g>
</svg>
